Coordinates
version=1
nRows=8
nColumns=63
inDegrees=yes

Units are S.I. units (second, meters, Newtons, ...)
If the header above contains a line with 'inDegrees', this indicates whether rotational values are in degrees (yes) or radians (no).

endheader
time	pelvis_tilt	pelvis_list	pelvis_rotation	pelvis_tx	pelvis_ty	pelvis_tz	hip_flexion_r	hip_adduction_r	hip_rotation_r	knee_angle_r	knee_angle_r_beta	ankle_angle_r	subtalar_angle_r	mtp_angle_r	hip_flexion_l	hip_adduction_l	hip_rotation_l	knee_angle_l	knee_angle_l_beta	ankle_angle_l	subtalar_angle_l	mtp_angle_l	L5_S1_Flex_Ext	L5_S1_Lat_Bending	L5_S1_axial_rotation	L4_L5_Flex_Ext	L4_L5_Lat_Bending	L4_L5_axial_rotation	L3_L4_Flex_Ext	L3_L4_Lat_Bending	L3_L4_axial_rotation	L2_L3_Flex_Ext	L2_L3_Lat_Bending	L2_L3_axial_rotation	L1_L2_Flex_Ext	L1_L2_Lat_Bending	L1_L2_axial_rotation	L1_T12_Flex_Ext	L1_T12_Lat_Bending	L1_T12_axial_rotation	Abs_r3	Abs_r2	Abs_r1	Abs_t1	Abs_t2	neck_flexion	neck_bending	neck_rotation	arm_flex_r	arm_add_r	arm_rot_r	elbow_flex_r	pro_sup_r	wrist_flex_r	wrist_dev_r	arm_flex_l	arm_add_l	arm_rot_l	elbow_flex_l	pro_sup_l	wrist_flex_l	wrist_dev_l
2.210526	-2.845430	0.111868	86.295484	0.163668	0.856861	0.497924	2.838210	-1.005635	-1.584484	8.591498	0.149950	29.906111	6.054877	0.000000	0.393521	1.948380	13.829892	1.486820	0.025950	20.309741	-12.013468	0.000000	-0.092815	0.035930	0.578686	-0.172366	0.047787	0.614854	-0.152485	0.087361	0.614854	-0.106078	0.087361	0.506351	-0.086188	0.073269	0.470183	-0.053034	0.055656	0.434015	-0.662967	0.406449	3.218480	0.000000	0.000000	12.035240	2.073351	6.160111	-11.300727	-38.478128	3.208164	129.898118	85.310970	4.688184	5.923747	-8.325159	-46.026123	2.229557	122.958828	85.057078	22.843333	-10.524040
2.228070	-2.850072	0.213845	86.537923	0.163286	0.857229	0.498075	2.707756	-1.037637	-2.080624	8.526456	0.148815	30.012719	6.425351	0.000000	0.367877	1.970600	13.516396	1.440208	0.025136	20.653139	-11.438333	0.000000	-0.112203	0.039997	0.492952	-0.208373	0.053196	0.523761	-0.184339	0.097249	0.523761	-0.128237	0.097249	0.431333	-0.104192	0.081562	0.400523	-0.064113	0.061956	0.369714	-0.801456	0.452457	2.741651	0.000000	0.000000	11.516311	2.031446	6.821714	-10.501018	-38.925785	4.201583	129.868594	85.316888	4.121036	6.102505	-8.550239	-45.553124	1.005022	122.341332	85.382728	21.090445	-9.530059
2.245614	-2.873508	0.331027	86.774903	0.162927	0.857592	0.498354	2.550397	-1.085734	-2.556788	8.415093	0.146871	30.129585	6.822213	0.000000	0.341175	2.008556	13.086801	1.400586	0.024445	20.963984	-10.779750	0.000000	-0.130706	0.041526	0.427099	-0.242734	0.055229	0.453793	-0.214737	0.100966	0.453793	-0.149384	0.100966	0.373712	-0.121374	0.084679	0.347018	-0.074685	0.064323	0.320324	-0.933620	0.469748	2.375397	0.000000	0.000000	10.938502	1.857073	7.313302	-9.622579	-39.261003	5.161488	129.664377	85.606941	3.511994	6.369750	-8.448851	-45.119394	0.158069	121.480550	85.855249	18.753167	-8.449950
2.263158	-2.928773	0.440439	87.021019	0.162606	0.857930	0.498769	2.401801	-1.163062	-3.079312	8.287805	0.144649	30.272462	7.285884	0.000000	0.342269	2.075781	12.594568	1.381575	0.024113	21.190195	-10.107096	0.000000	-0.144118	0.038548	0.371901	-0.267642	0.051269	0.395145	-0.236772	0.093725	0.395145	-0.164713	0.093725	0.325414	-0.133828	0.078607	0.302170	-0.082349	0.059711	0.278926	-1.029422	0.436062	2.068403	0.000000	0.000000	10.283794	1.680042	7.766679	-8.699999	-39.449222	5.993034	129.302574	86.255590	2.953338	6.729307	-8.151819	-44.791131	-0.434684	120.526366	86.472870	15.939302	-7.546237
2.280702	-3.006545	0.549439	87.266037	0.162309	0.858258	0.499290	2.255953	-1.267809	-3.691471	8.155219	0.142335	30.446134	7.889534	0.000000	0.350359	2.164560	12.145535	1.371463	0.023937	21.300404	-9.526479	0.000000	-0.154453	0.032151	0.321519	-0.286834	0.042761	0.341614	-0.253751	0.078172	0.341614	-0.176524	0.078172	0.281329	-0.143425	0.065562	0.261234	-0.088254	0.049802	0.241140	-1.103241	0.363698	1.788194	0.000000	0.000000	9.581011	1.500936	8.195737	-7.723010	-39.490203	6.668621	128.807512	86.918606	2.324702	7.231904	-7.836247	-44.545045	-0.999936	119.709782	87.221112	12.927252	-6.646111
2.298246	-3.093336	0.648639	87.493074	0.162035	0.858561	0.499873	2.130481	-1.384820	-4.331115	8.038653	0.140301	30.636722	8.554253	0.000000	0.366743	2.261628	11.792799	1.370035	0.023912	21.299705	-9.081570	0.000000	-0.160680	0.023499	0.274282	-0.298399	0.031254	0.291425	-0.263981	0.057135	0.291425	-0.183641	0.057135	0.239997	-0.149208	0.047919	0.222854	-0.091813	0.036400	0.205712	-1.147722	0.265824	1.525475	0.000000	0.000000	8.835342	1.367316	8.605824	-6.678648	-39.397916	7.179648	128.205272	87.079779	1.525746	7.890086	-7.635636	-44.353059	-1.666308	119.181300	88.059172	9.897958	-5.753974
2.315789	-3.181294	0.738033	87.683434	0.161808	0.858842	0.500461	2.027397	-1.504837	-4.960776	7.949074	0.138738	30.827202	9.244448	0.000000	0.379672	2.356917	11.549652	1.372140	0.023948	21.224636	-8.743080	0.000000	-0.163645	0.012636	0.241515	-0.303905	0.016806	0.256609	-0.268852	0.030724	0.256609	-0.187030	0.030724	0.211325	-0.151961	0.025768	0.196231	-0.093507	0.019574	0.181136	-1.168899	0.142946	1.343233	0.000000	0.000000	8.069615	1.289098	8.901206	-5.666470	-39.152683	7.385021	127.566560	86.776036	0.588002	8.687893	-7.521504	-44.246181	-2.322391	119.009372	88.876879	6.805970	-4.998752
2.333333	-3.259151	0.820132	87.857771	0.161583	0.859125	0.501018	1.941782	-1.616677	-5.532697	7.894774	0.137790	30.977995	9.861416	0.000000	0.385623	2.442021	11.466052	1.383194	0.024141	21.063833	-8.554121	0.000000	-0.164391	0.001242	0.205323	-0.305290	0.001652	0.218156	-0.270078	0.003020	0.218156	-0.187882	0.003020	0.179658	-0.152653	0.002533	0.166825	-0.093933	0.001924	0.153992	-1.174227	0.014051	1.141946	0.000000	0.000000	7.282120	1.332848	9.176358	-4.596170	-38.841120	7.443640	126.903255	86.024155	-0.553290	9.532850	-7.642404	-44.143780	-3.225083	119.243889	89.422640	4.475164	-4.205440
